<?xml version="1.0" encoding="UTF-8" standalone="no"?>
<!DOCTYPE svg PUBLIC "-//W3C//DTD SVG 1.1//EN"
 "http://www.w3.org/Graphics/SVG/1.1/DTD/svg11.dtd">
<!-- Generated by graphviz version 2.43.0 (0)
 -->
<!-- Title: TreemapNote Pages: 1 -->
<svg width="242pt" height="206pt"
 viewBox="0.00 0.00 242.00 206.00" xmlns="http://www.w3.org/2000/svg" xmlns:xlink="http://www.w3.org/1999/xlink">
<g id="graph0" class="graph" transform="scale(1 1) rotate(0) translate(4 202)">
<title>TreemapNote</title>
<polygon fill="white" stroke="transparent" points="-4,4 -4,-202 238,-202 238,4 -4,4"/>
<!-- A -->
<g id="node1" class="node">
<title>A</title>
<polygon fill="lightgrey" stroke="lightgrey" points="54,-117 0,-117 0,-81 54,-81 54,-117"/>
<text text-anchor="middle" x="27" y="-95.3" font-family="Times,serif" font-size="14.00">A</text>
</g>
<!-- B -->
<g id="node2" class="node">
<title>B</title>
<polygon fill="lightgrey" stroke="lightgrey" points="144,-144 90,-144 90,-108 144,-108 144,-144"/>
<text text-anchor="middle" x="117" y="-122.3" font-family="Times,serif" font-size="14.00">B</text>
</g>
<!-- A&#45;&gt;B -->
<g id="edge1" class="edge">
<title>A&#45;&gt;B</title>
<path fill="none" stroke="black" d="M54.4,-107.1C62.48,-109.58 71.51,-112.35 80.1,-114.99"/>
<polygon fill="black" stroke="black" points="79.33,-118.41 89.92,-118 81.39,-111.72 79.33,-118.41"/>
</g>
<!-- C -->
<g id="node3" class="node">
<title>C</title>
<polygon fill="lightgrey" stroke="lightgrey" points="144,-90 90,-90 90,-54 144,-54 144,-90"/>
<text text-anchor="middle" x="117" y="-68.3" font-family="Times,serif" font-size="14.00">C</text>
</g>
<!-- A&#45;&gt;C -->
<g id="edge2" class="edge">
<title>A&#45;&gt;C</title>
<path fill="none" stroke="black" d="M54.4,-90.9C62.48,-88.42 71.51,-85.65 80.1,-83.01"/>
<polygon fill="black" stroke="black" points="81.39,-86.28 89.92,-80 79.33,-79.59 81.39,-86.28"/>
</g>
<!-- D -->
<g id="node4" class="node">
<title>D</title>
<polygon fill="lightgrey" stroke="lightgrey" points="234,-198 180,-198 180,-162 234,-162 234,-198"/>
<text text-anchor="middle" x="207" y="-176.3" font-family="Times,serif" font-size="14.00">D</text>
</g>
<!-- B&#45;&gt;D -->
<g id="edge3" class="edge">
<title>B&#45;&gt;D</title>
<path fill="none" stroke="black" d="M144.4,-142.2C152.83,-147.37 162.29,-153.18 171.22,-158.66"/>
<polygon fill="black" stroke="black" points="169.57,-161.75 179.92,-164 173.23,-155.78 169.57,-161.75"/>
</g>
<!-- E -->
<g id="node5" class="node">
<title>E</title>
<polygon fill="lightgrey" stroke="lightgrey" points="234,-144 180,-144 180,-108 234,-108 234,-144"/>
<text text-anchor="middle" x="207" y="-122.3" font-family="Times,serif" font-size="14.00">E</text>
</g>
<!-- B&#45;&gt;E -->
<g id="edge4" class="edge">
<title>B&#45;&gt;E</title>
<path fill="none" stroke="black" d="M144.4,-126C152.39,-126 161.31,-126 169.82,-126"/>
<polygon fill="black" stroke="black" points="169.92,-129.5 179.92,-126 169.92,-122.5 169.92,-129.5"/>
</g>
<!-- F -->
<g id="node6" class="node">
<title>F</title>
<polygon fill="lightgrey" stroke="lightgrey" points="234,-90 180,-90 180,-54 234,-54 234,-90"/>
<text text-anchor="middle" x="207" y="-68.3" font-family="Times,serif" font-size="14.00">F</text>
</g>
<!-- C&#45;&gt;F -->
<g id="edge5" class="edge">
<title>C&#45;&gt;F</title>
<path fill="none" stroke="black" d="M144.4,-72C152.39,-72 161.31,-72 169.82,-72"/>
<polygon fill="black" stroke="black" points="169.92,-75.5 179.92,-72 169.92,-68.5 169.92,-75.5"/>
</g>
<!-- G -->
<g id="node7" class="node">
<title>G</title>
<polygon fill="lightgrey" stroke="lightgrey" points="234,-36 180,-36 180,0 234,0 234,-36"/>
<text text-anchor="middle" x="207" y="-14.3" font-family="Times,serif" font-size="14.00">G</text>
</g>
<!-- C&#45;&gt;G -->
<g id="edge6" class="edge">
<title>C&#45;&gt;G</title>
<path fill="none" stroke="black" d="M144.4,-55.8C152.83,-50.63 162.29,-44.82 171.22,-39.34"/>
<polygon fill="black" stroke="black" points="173.23,-42.22 179.92,-34 169.57,-36.25 173.23,-42.22"/>
</g>
</g>
</svg>
